<?xml version="1.0" encoding="UTF-8" standalone="no"?>
<!-- Created with Inkscape (http://www.inkscape.org/) -->

<svg
   width="110"
   height="110"
   viewBox="0 0 29.104167 29.104167"
   version="1.1"
   id="svg5"
   xml:space="preserve"
   inkscape:version="1.2.1 (9c6d41e410, 2022-07-14)"
   sodipodi:docname="menulogo.svg"
   inkscape:export-filename="New CWAC logo concept.png"
   inkscape:export-xdpi="96"
   inkscape:export-ydpi="96"
   xmlns:inkscape="http://www.inkscape.org/namespaces/inkscape"
   xmlns:sodipodi="http://sodipodi.sourceforge.net/DTD/sodipodi-0.dtd"
   xmlns="http://www.w3.org/2000/svg"
   xmlns:svg="http://www.w3.org/2000/svg"><sodipodi:namedview
     id="namedview7"
     pagecolor="#ffffff"
     bordercolor="#000000"
     borderopacity="0.25"
     inkscape:showpageshadow="2"
     inkscape:pageopacity="0.0"
     inkscape:pagecheckerboard="0"
     inkscape:deskcolor="#d1d1d1"
     inkscape:document-units="mm"
     showgrid="true"
     inkscape:zoom="1.9491863"
     inkscape:cx="-48.225252"
     inkscape:cy="76.955189"
     inkscape:window-width="1366"
     inkscape:window-height="705"
     inkscape:window-x="-8"
     inkscape:window-y="-8"
     inkscape:window-maximized="1"
     inkscape:current-layer="layer1"
     showguides="true"><inkscape:grid
       type="xygrid"
       id="grid801"
       originx="-60.782281"
       originy="-68.091682" /></sodipodi:namedview><defs
     id="defs2" /><g
     inkscape:label="Layer 1"
     inkscape:groupmode="layer"
     id="layer1"
     transform="translate(-60.782283,-68.091685)"><g
       inkscape:groupmode="layer"
       id="layer6"
       inkscape:label="Layer 2" /><ellipse
       style="fill:none;fill-rule:evenodd;stroke:#000000;stroke-width:0;stroke-dasharray:none"
       id="circle3609"
       cx="2.0750456"
       cy="112.8835"
       transform="matrix(-0.74241984,0.66993491,0.68195165,0.73139726,0,0)"
       rx="9.9310942"
       ry="9.9171009" /><g
       id="g1065"
       transform="matrix(2.5656913,0,0,2.5656913,-118.22276,-117.90501)"
       style="fill:#ffffff"><path
         style="fill:#ffffff;fill-opacity:1;fill-rule:evenodd;stroke:#050101;stroke-width:0.304902;stroke-opacity:0"
         d="m 74.145435,74.642729 h 2.48606 l -0.429362,2.440484 h -1.643237 z"
         id="path1270" /><path
         style="fill:#ffffff;fill-opacity:1;fill-rule:evenodd;stroke:#000000;stroke-width:0.304902;stroke-opacity:0"
         d="m 74.299158,77.390881 h 2.168014 l 0.190828,-1.110733 4.323251,2.213148 -0.968912,5.160454 -3.326536,-0.743002 -0.22864,-1.29795 1.564877,-0.403764 c 0,0 1.045751,-2.063076 1.045751,-2.07045 0,-0.0074 -2.839268,0.678473 -2.839268,0.678473 l 0.253004,0.803844 -1.075736,0.623163 -1.056995,-0.626851 0.243633,-0.798312 -2.796163,-0.680317 1.032631,2.075979 1.544264,0.401923 -0.228644,1.294262 -3.289052,0.743002 -0.955944,-5.16778 4.20881,-2.15889 z"
         id="path1272" /></g></g></svg>
