<?xml version="1.0" encoding="UTF-8" standalone="no"?>
<!-- Created with Inkscape (http://www.inkscape.org/) -->

<svg
   width="110"
   height="110"
   viewBox="0 0 29.104167 29.104167"
   version="1.1"
   id="svg5"
   xml:space="preserve"
   inkscape:version="1.2.1 (9c6d41e410, 2022-07-14)"
   sodipodi:docname="navbar logo.svg"
   inkscape:export-filename="New CWAC logo concept.png"
   inkscape:export-xdpi="96"
   inkscape:export-ydpi="96"
   xmlns:inkscape="http://www.inkscape.org/namespaces/inkscape"
   xmlns:sodipodi="http://sodipodi.sourceforge.net/DTD/sodipodi-0.dtd"
   xmlns="http://www.w3.org/2000/svg"
   xmlns:svg="http://www.w3.org/2000/svg"><sodipodi:namedview
     id="namedview7"
     pagecolor="#ffffff"
     bordercolor="#000000"
     borderopacity="0.25"
     inkscape:showpageshadow="2"
     inkscape:pageopacity="0.0"
     inkscape:pagecheckerboard="0"
     inkscape:deskcolor="#d1d1d1"
     inkscape:document-units="mm"
     showgrid="true"
     inkscape:zoom="1.9491863"
     inkscape:cx="-40.016698"
     inkscape:cy="76.955189"
     inkscape:window-width="1366"
     inkscape:window-height="705"
     inkscape:window-x="-8"
     inkscape:window-y="-8"
     inkscape:window-maximized="1"
     inkscape:current-layer="layer1"
     showguides="true"><inkscape:grid
       type="xygrid"
       id="grid801"
       originx="-60.782281"
       originy="-68.091682" /></sodipodi:namedview><defs
     id="defs2" /><g
     inkscape:label="Layer 1"
     inkscape:groupmode="layer"
     id="layer1"
     transform="translate(-60.782283,-68.091685)"><g
       inkscape:groupmode="layer"
       id="layer6"
       inkscape:label="Layer 2" /><g
       id="g1066"
       transform="matrix(0.84925073,0,0,0.84925073,11.493573,12.48293)"><ellipse
         style="fill:none;fill-rule:evenodd;stroke:#000000;stroke-width:0;stroke-dasharray:none"
         id="circle3609"
         cx="2.3180957"
         cy="112.93923"
         transform="matrix(-0.74241984,0.66993491,0.68195165,0.73139726,0,0)"
         rx="11.693949"
         ry="11.677471" /><path
         d="m 72.788088,86.007583 -0.258148,0.331946 h -2.002081 v -2.255927 l 2.189867,-0.488789 -0.221533,0.44474 -1.354516,0.375991 v 1.592039 z"
         id="path7440"
         sodipodi:nodetypes="ccccccccc"
         style="font-size:8.19251px;font-family:'ROG Fonts';-inkscape-font-specification:'ROG Fonts, Normal';fill:#ffffff;fill-opacity:1;fill-rule:evenodd;stroke-width:0.242311" /><path
         d="m 75.44988,83.249969 v 3.08956 l -1.244845,-0.908818 -1.244848,0.908818 0.02386,-2.840834 0.63609,-0.238499 -0.05761,2.102838 0.642499,-0.454409 0.642502,0.454409 4e-6,-2.24789 z"
         id="path7442"
         sodipodi:nodetypes="ccccccccccc"
         style="font-size:8.19251px;font-family:'ROG Fonts';-inkscape-font-specification:'ROG Fonts, Normal';fill:#ffffff;fill-opacity:1;fill-rule:evenodd;stroke-width:0.242311" /><path
         d="m 77.93292,83.636973 0.02387,2.702556 h -0.602343 v -0.96038 h -1.061275 v 0.96038 h -0.61382 v -3.08956 z m -1.631155,0.289783 v 1.117226 h 1.038332 v -0.966829 z"
         id="path7444"
         sodipodi:nodetypes="cccccccccccccc"
         style="font-size:8.19251px;font-family:'ROG Fonts';-inkscape-font-specification:'ROG Fonts, Normal';fill:#ffffff;fill-opacity:1;fill-rule:evenodd;stroke-width:0.242311" /><path
         d="m 80.308198,86.007583 -0.258147,0.331946 h -1.8638 l 0.03373,-2.669519 2.223612,0.413592 -0.255281,0.331942 -1.388263,-0.225594 v 1.817633 z"
         id="path7446"
         sodipodi:nodetypes="ccccccccc"
         style="font-size:8.19251px;font-family:'ROG Fonts';-inkscape-font-specification:'ROG Fonts, Normal';fill:#ffffff;fill-opacity:1;fill-rule:evenodd;stroke-width:0.242311" /><path
         style="fill:#ff0000;fill-opacity:1;fill-rule:evenodd;stroke:#050101;stroke-width:0.359025;stroke-opacity:0"
         d="m 73.773104,73.193695 h 2.927356 l -0.505577,2.873691 h -1.934926 z"
         id="path1270" /><path
         style="fill:#ff0000;fill-opacity:1;fill-rule:evenodd;stroke:#000000;stroke-width:0.359025;stroke-opacity:0"
         d="m 73.954114,76.429668 h 2.552855 l 0.224701,-1.307898 5.090665,2.606001 -1.140902,6.076478 -3.917024,-0.874891 -0.269226,-1.528347 1.842656,-0.475435 c 0,0 1.231381,-2.42929 1.231381,-2.437973 0,-0.0087 -3.343263,0.798908 -3.343263,0.798908 l 0.297915,0.946533 -1.266688,0.73378 -1.244621,-0.738123 0.28688,-0.940019 -3.292506,-0.801079 1.215932,2.444483 1.818384,0.473268 -0.26923,1.524004 -3.872887,0.874891 -1.125632,-6.085105 4.955909,-2.542111 z"
         id="path1272" /><path
         style="fill:#ff0000;fill-opacity:1;fill-rule:evenodd;stroke:#b82f2f;stroke-width:0;stroke-dasharray:none;stroke-opacity:1"
         d="m 70.296478,86.803814 0.574236,-0.0029 c 0.271242,0.584212 0.655886,1.129133 1.298273,1.633338 -0.476455,0.07899 -1.118701,0.15258 -1.644687,0.116669 -0.159697,-0.534987 -0.268383,-1.120769 -0.227822,-1.746934 z"
         id="path1327"
         sodipodi:nodetypes="ccccc" /><path
         style="fill:#ff0000;fill-opacity:1;fill-rule:evenodd;stroke:#b82f2f;stroke-width:0;stroke-dasharray:none;stroke-opacity:1"
         d="m 71.260715,86.802327 1.836036,-0.0043 c 0.259727,0.348854 0.602579,0.693148 0.979809,1.007321 -0.458726,0.246171 -0.96364,0.372279 -1.456471,0.529711 C 71.985231,87.86984 71.56488,87.348138 71.260715,86.80237 Z"
         id="path2830"
         sodipodi:nodetypes="ccccc" /><path
         style="fill:#ff0000;fill-opacity:1;fill-rule:evenodd;stroke:#b82f2f;stroke-width:0;stroke-dasharray:none;stroke-opacity:1"
         d="m 73.551346,86.78496 h 1.959618 c -0.326988,0.36947 -0.71507,0.573648 -1.085734,0.824958 -0.324766,-0.23657 -0.619695,-0.507383 -0.873884,-0.824958 z"
         id="path2832"
         sodipodi:nodetypes="cccc" /><path
         style="fill:#ff0000;fill-opacity:1;fill-rule:evenodd;stroke:#b82f2f;stroke-width:0;stroke-dasharray:none;stroke-opacity:1"
         d="m 70.647233,88.908147 c 2.560461,0.04112 4.199576,-0.936923 5.393355,-2.12753 h 2.03906 c -1.033155,1.486444 -4.298388,3.751744 -6.602668,3.655876 -0.07637,0.05635 -0.912349,-1.486939 -0.829747,-1.528346 z"
         id="path2834"
         sodipodi:nodetypes="ccccc" /><path
         style="fill:#ff0000;fill-opacity:1;fill-rule:evenodd;stroke:#b82f2f;stroke-width:0;stroke-dasharray:none;stroke-opacity:1"
         d="m 71.800727,90.798118 c 0.589244,0.727041 1.273765,0.956996 1.79761,1.228076 2.220559,-0.761681 3.690359,-1.527022 5.59256,-3.850011 -0.245175,-0.416856 -0.484425,-0.84341 -0.81142,-1.228073 0.03561,0.357441 -3.542681,3.68326 -6.57875,3.850008 z"
         id="path3816"
         sodipodi:nodetypes="ccccc" /><path
         style="fill:#ff0000;fill-opacity:1;fill-rule:evenodd;stroke:#b82f2f;stroke-width:0;stroke-dasharray:none;stroke-opacity:1"
         d="m 74.222505,92.228827 c 3.135271,-1.316168 4.278598,-2.702231 5.155645,-3.714922 l 0.411952,0.939474 c -1.887163,3.475623 -4.749077,2.895497 -5.567597,2.775448 z"
         id="path3818"
         sodipodi:nodetypes="cccc" /><path
         style="fill:#ff0000;fill-opacity:1;fill-rule:evenodd;stroke:#b82f2f;stroke-width:0;stroke-dasharray:none;stroke-opacity:1"
         d="m 78.704044,86.770039 c 0.549964,0.696386 0.907219,1.371696 1.279549,2.17983 0.269017,-0.650958 0.392159,-1.463399 0.393229,-2.17983 z"
         id="path3820"
         sodipodi:nodetypes="cccc" /><g
         aria-label="CHESHIRE WEST AND CHESTER"
         transform="matrix(0.47530522,0,0,0.50707983,31.173291,29.998519)"
         id="text1363"
         style="font-size:5.29167px;font-family:'Eras Bold ITC';-inkscape-font-specification:'Eras Bold ITC, Normal';fill:#ffffff;fill-rule:evenodd;stroke:#ffffff;stroke-width:0.1"><path
           d="m 61.901757,97.804351 q 0.136195,0.07518 0.384407,0.199008 0.245746,0.123055 0.384112,0.182669 -0.08894,0.551585 -0.218766,0.965798 -0.125188,0.399421 -0.331998,0.713688 -0.208503,0.311026 -0.525748,0.528406 -0.318938,0.21414 -0.665771,0.24082 -0.346833,0.0267 -0.728995,-0.0931 -0.446265,-0.13987 -0.74953,-0.41634 -0.304957,-0.279712 -0.444282,-0.664558 -0.141017,-0.388085 -0.125417,-0.792067 0.01313,-0.404756 0.137551,-0.80171 0.114369,-0.364903 0.376524,-0.873029 l 0.208652,0.05998 q 0.137152,0.03757 0.302969,0.07871 l 0.286483,0.07084 q -0.159449,0.266833 -0.240517,0.439091 -0.08029,0.169792 -0.128207,0.322657 -0.104323,0.33285 -0.05464,0.64086 0.04968,0.308009 0.255721,0.540469 0.206041,0.23246 0.514236,0.329056 0.281073,0.08809 0.523433,0.02325 0.239894,-0.06561 0.418847,-0.247809 0.177261,-0.185433 0.277721,-0.505956 0.05487,-0.175054 0.09189,-0.388196 0.03533,-0.21638 0.05133,-0.552541 z"
           id="path2499" /><path
           d="m 62.882755,97.579242 -1.242768,-0.675238 -0.917046,-0.467673 -0.411043,-0.200916 q -0.179002,-0.08699 -0.346027,-0.162868 l -0.226906,-0.100239 q 0.172486,-0.3672 0.255842,-0.550692 0.06519,-0.143501 0.221852,-0.50086 0.649509,0.363166 1.159571,0.61474 l 0.579002,-1.280811 q -0.187559,-0.09939 -0.510277,-0.257347 -0.324002,-0.161375 -0.443978,-0.215877 -0.06352,-0.02885 -0.223269,-0.09575 l 0.257979,-0.555397 q 0.03954,-0.08704 0.219715,-0.496155 1.170695,0.633983 1.750477,0.925742 0.57743,0.290691 1.400793,0.664724 l -0.237674,0.510701 q -0.05236,0.11527 -0.245362,0.552614 -0.533171,-0.313154 -1.266932,-0.672025 l -0.582423,1.282094 1.285099,0.632033 -0.252635,0.543635 q -0.04702,0.103508 -0.22399,0.505565 z"
           id="path2501" /><path
           d="M 64.721175,93.67051 Q 64.186314,93.267413 63.81769,93.008472 63.450414,92.747327 62.830555,92.334617 62.209842,91.918355 62.002684,91.791563 l -0.195283,-0.116495 q 0.322735,-0.5174 0.774599,-1.255674 0.416794,-0.680976 0.730714,-1.203772 l 0.07003,0.04892 q 0.0251,0.01839 0.184986,0.128369 l 0.232122,0.160247 q 0.07444,0.05162 0.153772,0.100176 -0.277957,0.414543 -0.454656,0.703241 -0.194234,0.317348 -0.260822,0.431091 -0.06744,0.11019 -0.202953,0.351393 l 0.488485,0.335331 q 0.165775,-0.256002 0.377544,-0.601999 0.07553,-0.123413 0.38653,-0.666176 0.268598,0.19469 0.646532,0.453271 -0.237758,0.37856 -0.363201,0.583514 -0.186141,0.304125 -0.401367,0.690417 l 0.519338,0.354216 0.155118,-0.253438 q 0.06879,-0.112394 0.277995,-0.469049 l 0.268192,-0.462932 q 0.05984,-0.102724 0.190092,-0.350176 0.309977,0.226075 0.647388,0.456823 -0.333527,0.53503 -0.726041,1.176338 l -0.591289,0.971022 z"
           id="path2503" /><path
           d="m 66.516341,90.705479 q -0.45843,-0.306366 -0.748287,-0.471576 0.277994,-0.152168 0.455186,-0.299833 0.1767,-0.151286 0.279916,-0.287035 0.136057,-0.178942 0.164394,-0.322936 0.02784,-0.147614 -0.075,-0.225808 -0.03497,-0.02659 -0.07364,-0.03976 -0.04073,-0.01474 -0.101702,-0.01566 -0.06303,-0.0025 -0.150998,0.01503 l -0.631323,0.130205 q -0.218397,0.04817 -0.310478,0.06255 -0.187782,0.02925 -0.325198,0.02215 -0.135851,-0.0092 -0.250302,-0.05074 -0.114943,-0.0452 -0.21984,-0.124957 -0.125465,-0.0954 -0.211919,-0.229294 -0.08695,-0.137518 -0.124597,-0.305718 -0.03765,-0.1682 -0.0027,-0.372096 0.03493,-0.203897 0.134868,-0.390828 0.09788,-0.188496 0.232371,-0.365381 0.264294,-0.3476 0.65572,-0.695914 0.146611,0.101737 0.272162,0.184214 0.123493,0.08091 0.443131,0.275259 -0.219978,0.131363 -0.367627,0.265786 -0.149706,0.132859 -0.235719,0.245983 -0.121982,0.160431 -0.143656,0.312737 -0.02011,0.15025 0.06833,0.217496 0.04114,0.03128 0.09273,0.04454 0.05159,0.01326 0.139472,0.0087 0.08583,-0.0062 0.205886,-0.03172 0.118003,-0.02713 0.36183,-0.09167 l 0.229836,-0.05895 q 0.103521,-0.02516 0.237486,-0.0434 0.133965,-0.01824 0.250235,-0.01747 0.116269,7.65e-4 0.199868,0.01889 0.08516,0.01606 0.15987,0.05015 0.07265,0.03252 0.14464,0.08725 0.185112,0.140749 0.286524,0.357429 0.09935,0.215116 0.08482,0.460489 -0.01659,0.243809 -0.121967,0.472046 -0.103811,0.226182 -0.268017,0.442146 -0.253347,0.333203 -0.736293,0.767732 z"
           id="path2505" /><path
           d="M 68.350542,88.36806 67.401354,87.319509 66.690817,86.574641 66.369454,86.248988 Q 66.229339,86.107646 66.096847,85.98076 l -0.180932,-0.169698 q 0.284312,-0.289403 0.423708,-0.434958 0.109015,-0.113832 0.37514,-0.399186 0.492677,0.557693 0.890708,0.963925 l 0.970333,-1.016942 q -0.144084,-0.155875 -0.396322,-0.411751 -0.252318,-0.259529 -0.347488,-0.350673 -0.05038,-0.04825 -0.178987,-0.164258 l 0.427282,-0.438689 q 0.06612,-0.06905 0.371565,-0.395454 0.894835,0.985765 1.345353,1.452996 0.448652,0.465444 1.101785,1.09094 l -0.393327,0.403234 q -0.08757,0.09144 -0.414457,0.44024 -0.399451,-0.47199 -0.973053,-1.053518 l -0.973986,1.01702 1.003434,1.021795 -0.418347,0.429359 q -0.07863,0.08211 -0.378714,0.402918 z"
           id="path2507" /><path
           d="m 71.406892,85.301443 q -1.240769,-1.669666 -1.971046,-2.51725 l -0.219523,-0.250827 q 0.34593,-0.291232 0.46142,-0.390738 0.05285,-0.04554 0.417483,-0.366524 0.34424,0.470788 0.661705,0.882791 0.44483,0.571703 0.844604,1.059444 0.398088,0.485784 0.688175,0.822469 l -0.404654,0.341828 q -0.117448,0.101193 -0.478164,0.418807 z"
           id="path2509" /><path
           d="m 72.754999,84.115064 q -0.226429,-0.397417 -0.416673,-0.709416 -0.190243,-0.311999 -0.454841,-0.713724 -0.264598,-0.401725 -0.567828,-0.839295 -0.304743,-0.439664 -0.489288,-0.695224 0.266382,-0.182799 0.427678,-0.299274 0.16758,-0.121013 0.402426,-0.303349 0.233333,-0.18443 0.461661,-0.349311 0.268128,-0.193621 0.49273,-0.32394 0.167695,-0.09879 0.328753,-0.144975 0.163154,-0.0477 0.299539,-0.0442 0.134872,0.0014 0.252519,0.04075 0.117647,0.03934 0.229239,0.127672 0.112175,0.08472 0.202935,0.21041 0.101349,0.140348 0.154985,0.289654 0.05212,0.147211 0.05328,0.312106 0.0017,0.161289 -0.05809,0.325598 -0.05924,0.160703 -0.209724,0.393665 l 0.301035,0.187375 q 0.126256,0.07774 0.261822,0.155138 l 0.723907,0.411065 q 0.04759,0.02619 0.180482,0.108701 -0.348659,0.2454 -0.46806,0.331622 -0.150822,0.108912 -0.491336,0.361179 -0.112174,-0.08473 -0.41344,-0.316553 -0.124858,-0.09788 -0.1984,-0.146755 -0.157674,-0.112423 -0.449748,-0.309456 l -0.643844,-0.437011 q 0.128243,-0.06074 0.23717,-0.139395 0.152917,-0.110424 0.243229,-0.245756 0.09241,-0.136844 0.08567,-0.278583 -0.0046,-0.143251 -0.08179,-0.250084 -0.06504,-0.09007 -0.161629,-0.122315 -0.0981,-0.03433 -0.227038,0.0078 -0.126845,0.0406 -0.342605,0.196409 -0.07332,0.05294 -0.149891,0.114614 -0.07599,0.05806 -0.179218,0.135792 0.282865,0.449089 0.708153,1.082167 0.425289,0.633078 0.848602,1.232526 -0.352849,0.248426 -0.457586,0.324059 -0.121496,0.08773 -0.434778,0.320336 z"
           id="path2511" /><path
           d="M 75.78499,81.970081 Q 75.51365,81.357759 75.317466,80.952239 75.123531,80.54545 74.782595,79.883396 74.442638,79.217821 74.323281,79.006293 l -0.113989,-0.196757 q 0.533611,-0.295162 1.287462,-0.720531 0.695343,-0.392355 1.223875,-0.696518 l 0.0374,0.0768 q 0.01299,0.02827 0.09922,0.202125 l 0.124902,0.252902 q 0.03994,0.0813 0.08565,0.162311 -0.444466,0.22706 -0.739256,0.393399 -0.324043,0.182845 -0.437539,0.249853 -0.112515,0.06349 -0.348218,0.208353 l 0.26377,0.530556 q 0.269345,-0.14308 0.622643,-0.342432 0.126017,-0.07111 0.661701,-0.39414 0.140026,0.300736 0.344521,0.710467 -0.391842,0.215168 -0.60112,0.333255 -0.310542,0.175227 -0.686455,0.408107 l 0.281547,0.562061 0.258785,-0.146022 q 0.114765,-0.06476 0.471004,-0.27467 l 0.459464,-0.274091 q 0.102244,-0.06066 0.336388,-0.213545 0.160921,0.348281 0.34354,0.713987 -0.551613,0.30532 -1.206451,0.67482 l -0.988863,0.560943 z"
           id="path2513" /><path
           d="m 80.677067,79.432192 -0.236724,-0.421553 q -0.0836,-0.148927 -0.242391,-0.414158 L 79.175849,76.90591 78.821233,76.338945 q 0.309775,-0.100281 0.500508,-0.165388 0.215185,-0.07345 0.497168,-0.175169 0.202079,0.376044 0.304641,0.548531 l 0.541788,0.915334 q 0.172088,0.296185 0.406427,0.726743 l -0.03616,-0.369885 -0.09464,-1.229051 -0.09747,-0.941412 q 0.336673,-0.109463 0.568975,-0.18876 0.251864,-0.08597 0.563191,-0.197706 l 0.505462,0.976879 0.660139,1.238053 -0.02733,-0.39201 q -0.0048,-0.102102 -0.008,-0.207485 -0.0032,-0.105382 -0.0071,-0.420754 l -0.0222,-1.040823 -0.02255,-0.521963 q 0.296714,-0.09855 0.489892,-0.164495 0.21763,-0.07429 0.485777,-0.16855 l 0.02115,3.165284 0.01784,0.548144 q -0.368462,0.120315 -0.642334,0.213801 -0.288543,0.09849 -0.63655,0.222748 l -0.170595,-0.315806 -0.613337,-1.092947 q -0.05301,-0.09931 -0.105242,-0.204334 -0.05062,-0.10831 -0.155207,-0.33471 l 0.04379,0.408233 q 0.01162,0.138006 0.02162,0.279292 l 0.09377,1.562433 q -0.370907,0.121149 -0.615435,0.204619 -0.259201,0.08848 -0.612098,0.214401 z"
           id="path2515" /><path
           d="m 85.495338,77.912401 q -0.0588,-0.667163 -0.113333,-1.114332 -0.052,-0.447644 -0.160573,-1.18437 -0.10651,-0.73974 -0.151067,-0.978497 l -0.04425,-0.223043 q 0.600381,-0.106787 1.451271,-0.26558 0.784852,-0.146469 1.383337,-0.263416 l 0.01056,0.08477 q 0.0031,0.03095 0.02854,0.223348 l 0.03643,0.279701 q 0.01151,0.08985 0.02858,0.181286 -0.494007,0.07116 -0.826743,0.133259 -0.365756,0.06826 -0.494821,0.09497 -0.126998,0.0237 -0.396879,0.08458 l 0.07807,0.587341 q 0.301139,-0.04831 0.699915,-0.122732 0.142238,-0.02655 0.753593,-0.159035 0.03527,0.329856 0.09631,0.783697 -0.440363,0.07692 -0.676581,0.121007 -0.350516,0.06541 -0.781533,0.164249 l 0.0847,0.622901 0.292097,-0.05451 q 0.129538,-0.02417 0.534512,-0.107636 l 0.523404,-0.11082 q 0.116364,-0.02434 0.387363,-0.09332 0.03967,0.381604 0.09425,0.786711 -0.620701,0.110579 -1.359833,0.248516 l -1.117114,0.211104 z"
           id="path2517" /><path
           d="m 88.89951,77.2599 q -0.0795,-0.545618 -0.150927,-0.871515 0.299179,0.104537 0.527506,0.137234 0.230685,0.02991 0.40062,0.01564 0.224005,-0.0188 0.349917,-0.09419 0.12827,-0.07818 0.117466,-0.206919 -0.0037,-0.04377 -0.01979,-0.08131 -0.01633,-0.04012 -0.05648,-0.08601 -0.04037,-0.04847 -0.112282,-0.102072 l -0.519495,-0.38164 q -0.182035,-0.129926 -0.254381,-0.188677 -0.147483,-0.119862 -0.234234,-0.226669 -0.08418,-0.107024 -0.129946,-0.219863 -0.04341,-0.115631 -0.05443,-0.246944 -0.01318,-0.157061 0.02836,-0.310936 0.0439,-0.156665 0.143591,-0.29727 0.0997,-0.140605 0.274509,-0.251213 0.174814,-0.110608 0.380562,-0.161583 0.205531,-0.05355 0.426962,-0.07213 0.435136,-0.03652 0.955943,0.0209 0.02263,0.177011 0.04547,0.325484 0.02262,0.145897 0.09235,0.513423 -0.244874,-0.07539 -0.443582,-0.09501 -0.198924,-0.0222 -0.340536,-0.01032 -0.200832,0.01685 -0.328454,0.102759 -0.125047,0.08569 -0.115756,0.196403 0.0043,0.0515 0.02903,0.09869 0.0247,0.04719 0.08697,0.109382 0.06205,0.05962 0.161437,0.131655 0.09918,0.06946 0.310397,0.207312 l 0.1977,0.131205 q 0.08801,0.06003 0.191272,0.147301 0.103262,0.08727 0.18056,0.174129 0.0773,0.08686 0.119826,0.161076 0.0451,0.074 0.06983,0.152307 0.02451,0.07573 0.03207,0.165848 0.01945,0.231729 -0.07355,0.452152 -0.09321,0.217848 -0.285167,0.371381 -0.192171,0.150959 -0.432237,0.225556 -0.237491,0.07438 -0.507842,0.09707 -0.417113,0.035 -1.063237,-0.03264 z"
           id="path2519" /><path
           d="m 92.638037,77.093406 q 0.148165,-1.253641 0.196818,-2.76203 l -1.101013,0.01177 0.01726,-0.286576 q 0.01381,-0.229778 0.02312,-0.503553 0.733643,0.01626 1.710217,0.03103 l 0.63817,0.0071 0.620047,0.0094 0.335898,0.0025 -0.01929,0.250368 q -0.01338,0.201359 -0.02054,0.333041 -0.0046,0.131721 -0.0056,0.198892 -0.552484,-0.0342 -0.911594,-0.03963 l -0.180847,-0.0027 q -0.04567,0.456698 -0.0722,0.843915 -0.03682,0.555029 -0.06025,1.07925 -0.02339,0.521639 -0.02828,0.84458 -0.42362,-0.01157 -0.54763,-0.01345 -0.111091,-0.0017 -0.594289,-0.0038 z"
           id="path2521" /><path
           d="m 96.079343,77.183028 0.276361,-0.328714 1.756325,-2.243497 0.189282,-0.252363 q 0.08279,-0.111232 0.232942,-0.320698 0.446805,0.08481 0.652854,0.121496 0.358678,0.06387 0.664841,0.113133 l 0.182512,1.1269 0.39225,2.174664 0.0814,0.397667 q -0.43917,-0.08345 -0.533296,-0.100207 -0.21368,-0.03805 -0.629227,-0.106791 -0.03719,-0.439659 -0.147319,-1.044524 l -1.282081,-0.228288 q -0.301031,0.408304 -0.633631,0.905468 -0.472243,-0.08934 -0.579083,-0.108361 -0.19333,-0.03442 -0.62414,-0.105885 z m 2.276464,-1.376664 0.791125,0.140868 q -0.13519,-0.950508 -0.146866,-1.047067 -0.234475,0.344045 -0.394068,0.562328 z"
           id="path2523" /><path
           d="m 100.77611,78.05395 0.21451,-0.501076 0.65636,-1.721559 0.25296,-0.697659 0.12278,-0.383921 q 0.37989,0.126917 0.67275,0.220577 0.20919,0.0669 0.58976,0.183185 l 0.44257,2.246623 0.0555,0.326994 q 0.1593,-0.404796 0.42485,-1.141831 0.26801,-0.736248 0.35931,-1.021727 0.30113,0.10173 0.48325,0.159972 0.0837,0.02676 0.48394,0.149342 l -0.29361,0.714498 -0.76243,2.002317 -0.20288,0.583464 q -0.31836,-0.107239 -0.59646,-0.196177 -0.23133,-0.07398 -0.64144,-0.199714 -0.0508,-0.282108 -0.0777,-0.41007 l -0.18915,-0.83362 q -0.0941,-0.409871 -0.1656,-0.779977 -0.0495,-0.235548 -0.0937,-0.512834 l -0.42475,1.15 -0.33865,0.974082 q -0.30359,-0.102518 -0.46356,-0.153677 -0.13536,-0.04329 -0.50855,-0.157212 z"
           id="path2525" /><path
           d="m 104.90588,79.418927 q 0.30286,-0.508488 0.47264,-0.819782 0.25303,-0.463438 0.6384,-1.20727 0.29454,-0.569558 0.41254,-0.819577 l 0.12904,-0.273385 q 0.27008,0.136045 0.46869,0.229789 0.1916,0.09043 0.50679,0.22777 0.31628,0.134998 0.58967,0.264034 0.31311,0.147784 0.53146,0.29656 0.21835,0.148776 0.3665,0.361557 0.15047,0.213883 0.199,0.468219 0.0485,0.254336 7.5e-4,0.543218 -0.0467,0.286544 -0.1735,0.555256 -0.12462,0.264039 -0.2965,0.482916 -0.17078,0.21654 -0.3639,0.365394 -0.19311,0.148853 -0.39591,0.227421 -0.19936,0.07733 -0.4197,0.0962 -0.1638,0.01411 -0.3145,-0.0056 -0.15071,-0.0197 -0.38949,-0.100977 -0.26559,-0.09107 -0.58571,-0.242163 l -0.94069,-0.452569 q -0.13319,-0.06286 -0.43558,-0.197021 z m 1.34138,-0.226885 q 0.123,0.07234 0.2632,0.138513 0.23834,0.112492 0.44512,0.158662 0.20678,0.04617 0.41205,-0.02552 0.2076,-0.07059 0.37683,-0.253573 0.17033,-0.185323 0.2773,-0.411976 0.13125,-0.278058 0.1201,-0.514748 -0.01,-0.239027 -0.14298,-0.393206 -0.13061,-0.153075 -0.41802,-0.288728 -0.16823,-0.07941 -0.40384,-0.173468 z"
           id="path2527" /><path
           d="m 112.7274,82.904112 q -0.11196,0.108009 -0.3034,0.308737 -0.18998,0.1986 -0.2877,0.313269 -0.50092,-0.247459 -0.85852,-0.493529 -0.34483,-0.23728 -0.58424,-0.527481 -0.23582,-0.290864 -0.35011,-0.658062 -0.1107,-0.367862 -0.034,-0.707167 0.0767,-0.339306 0.30369,-0.669235 0.26511,-0.385271 0.61864,-0.59365 0.35712,-0.209043 0.76593,-0.228834 0.41241,-0.02045 0.79387,0.113444 0.38293,0.131769 0.72563,0.367585 0.31503,0.216775 0.7234,0.616965 l -0.11878,0.181729 q -0.0763,0.120001 -0.16445,0.266345 l -0.15208,0.25291 q -0.20803,-0.23097 -0.34877,-0.359178 -0.13861,-0.126744 -0.27058,-0.217555 -0.28736,-0.197734 -0.59634,-0.240979 -0.30897,-0.04324 -0.59181,0.08519 -0.28283,0.128431 -0.46592,0.394502 -0.16698,0.242657 -0.1764,0.493364 -0.008,0.248578 0.11345,0.473257 0.125,0.224015 0.40171,0.414426 0.15113,0.103993 0.34391,0.202149 0.19638,0.09749 0.51291,0.211801 z"
           id="path2529" /><path
           d="m 112.65303,83.908992 1.0123,-0.987757 0.71777,-0.737909 0.3134,-0.333322 q 0.136,-0.145306 0.25784,-0.282453 l 0.16281,-0.187155 q 0.29983,0.273285 0.4505,0.407137 0.11783,0.10468 0.41295,0.359941 -0.53887,0.513199 -0.92993,0.926151 l 1.05254,0.931604 q 0.15037,-0.149816 0.39663,-0.411451 0.24991,-0.261851 0.33743,-0.360366 0.0463,-0.05215 0.15744,-0.185007 l 0.45437,0.410569 q 0.0715,0.06349 0.40908,0.356508 -0.95159,0.931093 -1.40164,1.398777 -0.44833,0.465753 -1.04895,1.141832 l -0.41767,-0.377964 q -0.0947,-0.08409 -0.45544,-0.397694 0.45672,-0.416833 1.01638,-1.011791 l -1.05276,-0.935251 -0.98353,1.040963 -0.44471,-0.401989 q -0.085,-0.07551 -0.41681,-0.363373 z"
           id="path2531" /><path
           d="m 115.84375,86.820417 q 0.54287,-0.392247 0.89897,-0.668147 0.35782,-0.273962 0.93493,-0.744596 0.58076,-0.470403 0.76299,-0.630973 l 0.16889,-0.152259 q 0.39926,0.46093 0.9715,1.110366 0.52783,0.599032 0.93484,1.053129 l -0.0674,0.05249 q -0.025,0.01856 -0.1772,0.13892 l -0.22156,0.174561 q -0.0713,0.05591 -0.14106,0.117404 -0.31417,-0.387818 -0.53794,-0.641777 -0.24598,-0.279161 -0.33504,-0.376322 -0.0854,-0.09693 -0.27594,-0.29753 l -0.46444,0.367912 q 0.19575,0.233881 0.46394,0.538244 0.0957,0.108562 0.52261,0.56575 -0.26523,0.199262 -0.62373,0.484164 -0.29164,-0.338797 -0.45051,-0.519088 -0.23573,-0.267529 -0.5414,-0.587075 l -0.49158,0.391827 0.19644,0.22294 q 0.0871,0.09887 0.36625,0.403924 l 0.36329,0.392752 q 0.0805,0.08747 0.27857,0.284882 -0.30742,0.229548 -0.62739,0.483933 -0.41292,-0.476438 -0.91,-1.040576 l -0.75354,-0.851282 z"
           id="path2533" /><path
           d="m 118.14796,89.409656 q 0.42751,-0.348203 0.67058,-0.576739 0.0638,0.31043 0.15289,0.523184 0.0927,0.213345 0.19214,0.351885 0.13108,0.18262 0.2604,0.252007 0.13292,0.06998 0.23787,-0.0054 0.0357,-0.02561 0.0596,-0.05871 0.026,-0.0346 0.0448,-0.09262 0.0209,-0.05952 0.03,-0.148749 l 0.061,-0.641718 q 0.0181,-0.222912 0.0314,-0.315154 0.0272,-0.188091 0.0744,-0.317356 0.0487,-0.127165 0.12204,-0.224352 0.077,-0.09659 0.18402,-0.173433 0.12804,-0.09191 0.28143,-0.13521 0.15699,-0.04271 0.32883,-0.02929 0.17184,0.01342 0.35648,0.10671 0.18464,0.09329 0.33396,0.243729 0.15143,0.148933 0.281,0.329454 0.25463,0.354745 0.47258,0.831223 -0.14031,0.110255 -0.25603,0.206037 -0.11363,0.09428 -0.39329,0.342719 -0.061,-0.248862 -0.14607,-0.429485 -0.083,-0.18213 -0.16588,-0.29758 -0.11752,-0.163729 -0.25674,-0.229188 -0.13771,-0.06336 -0.22797,0.0014 -0.042,0.03013 -0.0698,0.07555 -0.0278,0.04542 -0.0493,0.130771 -0.0193,0.08385 -0.0302,0.206119 -0.009,0.120767 -0.0187,0.372795 l -0.0112,0.237013 q -0.006,0.106344 -0.0283,0.239756 -0.0219,0.133412 -0.0568,0.244327 -0.0349,0.110914 -0.0768,0.185501 -0.0404,0.07669 -0.0949,0.138085 -0.0524,0.05989 -0.12589,0.112626 -0.18892,0.135598 -0.42583,0.168882 -0.23481,0.03178 -0.46509,-0.0542 -0.22818,-0.08748 -0.41539,-0.255256 -0.1857,-0.165674 -0.3439,-0.386078 -0.24408,-0.340052 -0.51756,-0.929339 z"
           id="path2535" /><path
           d="m 120.21026,92.532407 q 1.15137,-0.51762 2.47004,-1.25159 l -0.5763,-0.938215 0.25465,-0.132575 q 0.20417,-0.106319 0.44376,-0.239126 0.36333,0.637563 0.85287,1.482704 l 0.32212,0.550953 0.31082,0.536597 0.1706,0.289362 -0.22465,0.112208 q -0.17957,0.09207 -0.29619,0.153651 -0.11532,0.06381 -0.17345,0.09749 -0.25479,-0.491417 -0.43481,-0.802196 l -0.0906,-0.156508 q -0.41517,0.195693 -0.7609,0.372069 -0.49495,0.253849 -0.95659,0.503336 -0.45941,0.248192 -0.73889,0.410077 -0.20792,-0.369264 -0.27009,-0.476584 -0.0557,-0.09614 -0.30234,-0.511649 z"
           id="path2537" /><path
           d="m 121.47928,94.77075 q 0.63531,-0.212017 1.05761,-0.36884 0.42336,-0.154462 1.11477,-0.431044 0.69483,-0.275271 0.91673,-0.37402 l 0.20668,-0.09481 q 0.24321,0.559209 0.59513,1.350019 0.32461,0.729434 0.57725,1.28444 l -0.08,0.02995 q -0.0294,0.01025 -0.21063,0.07959 l -0.26361,0.100342 q -0.0847,0.03205 -0.16971,0.06987 -0.18386,-0.464005 -0.32148,-0.773247 -0.15127,-0.339931 -0.20721,-0.459272 -0.0525,-0.118031 -0.17437,-0.366416 l -0.55319,0.21224 q 0.11688,0.281706 0.28181,0.652324 0.0588,0.132195 0.32958,0.696113 -0.31267,0.11086 -0.73995,0.275556 -0.17702,-0.41049 -0.27472,-0.630028 -0.14497,-0.325767 -0.34113,-0.72208 l -0.58624,0.226948 0.12081,0.271472 q 0.0536,0.120392 0.22874,0.494941 l 0.22926,0.483397 q 0.0507,0.107538 0.18066,0.355132 -0.36198,0.127149 -0.74336,0.274245 -0.2516,-0.578094 -0.55731,-1.265036 l -0.46458,-1.037625 z"
           id="path2539" /><path
           d="m 122.87719,97.966555 q 0.44836,-0.09046 0.80427,-0.173338 0.3559,-0.08287 0.82031,-0.208233 0.46442,-0.12536 0.97498,-0.276172 0.51302,-0.151592 0.81354,-0.246743 0.0901,0.310253 0.15016,0.499927 0.0624,0.197064 0.16194,0.477224 0.10201,0.27938 0.18702,0.54788 0.0998,0.315303 0.15319,0.569432 0.0413,0.190207 0.0346,0.357627 -0.006,0.169883 -0.0519,0.2983 -0.0436,0.127636 -0.11784,0.227021 -0.0742,0.0994 -0.19309,0.17768 -0.11561,0.08 -0.26341,0.12676 -0.16504,0.0523 -0.32363,0.0564 -0.15613,0.003 -0.31308,-0.0472 -0.15371,-0.0489 -0.29099,-0.15721 -0.13404,-0.10662 -0.3081,-0.322535 l -0.27228,0.227145 q -0.1134,0.0955 -0.22938,0.2 l -0.61724,0.55861 q -0.0398,0.037 -0.15979,0.13732 -0.12376,-0.40801 -0.16822,-0.54842 -0.0562,-0.17735 -0.18899,-0.579776 0.11562,-0.07997 0.43019,-0.293398 0.13207,-0.08789 0.20154,-0.142409 0.15617,-0.114494 0.43482,-0.3301 l 0.61678,-0.474439 q 0.0175,0.140818 0.058,0.268909 0.0569,0.179821 0.15715,0.307998 0.10098,0.130639 0.23769,0.168662 0.13749,0.04049 0.26312,7.09e-4 0.10592,-0.03354 0.16681,-0.11515 0.0633,-0.08239 0.0638,-0.218038 10e-4,-0.13318 -0.0791,-0.3869 -0.0273,-0.08622 -0.0619,-0.178261 -0.0313,-0.09036 -0.0728,-0.212748 -0.51512,0.127862 -1.24959,0.333308 -0.73447,0.205445 -1.43639,0.419554 -0.12532,-0.412931 -0.16432,-0.536096 -0.0452,-0.142872 -0.16793,-0.51327 z"
           id="path2541" /></g><g
         aria-label="VOLLEYBALL CLUB"
         transform="matrix(0.56071362,0,0,0.55161046,16.482886,18.152076)"
         id="text1367"
         style="font-size:5.29167px;font-family:'Eras Bold ITC';-inkscape-font-specification:'Eras Bold ITC, Normal';fill:#ffffff;fill-rule:evenodd;stroke:#fefefe;stroke-width:0.1"><path
           d="m 82.216949,133.73308 0.149964,-0.29329 0.806853,-1.74524 0.611264,-1.34879 q 0.24939,0.24761 0.446563,0.43771 0.120908,0.11657 0.383051,0.36212 -0.116825,0.2068 -0.175137,0.31568 -0.07412,0.14388 -0.262668,0.52559 l -0.574816,1.14346 q -0.09179,0.1771 -0.245669,0.45584 l 0.2918,-0.13142 2.019299,-0.79525 q 0.0544,-0.0229 0.123283,-0.0534 0.07074,-0.0287 0.232019,-0.10292 0.266131,0.26376 0.429822,0.42157 0.102306,0.0986 0.409093,0.38723 -0.530468,0.1705 -1.225934,0.41163 l -1.868391,0.65362 q -0.272341,0.0964 -0.633357,0.24 -0.308913,-0.30501 -0.442842,-0.43413 -0.124628,-0.12015 -0.474197,-0.44999 z"
           id="path2544" /><path
           d="m 88.273245,134.20976 q 0.333191,0.24473 0.575622,0.56065 0.24243,0.31592 0.328273,0.68354 0.08737,0.36553 0.01377,0.70579 -0.0736,0.34027 -0.318332,0.67346 -0.256967,0.34985 -0.599665,0.55017 -0.339085,0.19977 -0.726381,0.22948 -0.387296,0.0297 -0.786683,-0.11617 -0.397856,-0.14796 -0.753954,-0.40952 -0.351933,-0.25849 -0.607411,-0.5872 -0.253949,-0.33079 -0.342003,-0.71286 -0.08444,-0.38261 0.0022,-0.71009 0.08665,-0.32748 0.314554,-0.63776 0.334975,-0.45606 0.79768,-0.64517 0.466317,-0.18967 1.022973,-0.079 0.558738,0.11225 1.079349,0.49464 z m -0.497883,0.59928 q -0.239481,-0.1759 -0.520333,-0.19945 -0.279323,-0.0256 -0.537931,0.10822 -0.257079,0.13177 -0.432979,0.37125 -0.162134,0.22074 -0.203026,0.47282 -0.03881,0.25362 0.07838,0.49999 0.118719,0.24429 0.335293,0.40336 0.231151,0.16978 0.506862,0.19597 0.279323,0.0256 0.532237,-0.10919 0.256526,-0.13538 0.424778,-0.36445 0.163663,-0.22282 0.207614,-0.47907 0.04548,-0.25833 -0.05921,-0.49553 -0.104694,-0.23719 -0.331681,-0.40392 z"
           id="path2546" /><path
           d="m 88.142468,138.48284 q 0.355422,-0.49969 0.569048,-0.82123 0.392045,-0.58581 0.754254,-1.17655 0.365727,-0.59173 0.582471,-0.97675 0.303678,0.17688 0.540093,0.30997 0.159861,0.09 0.461855,0.25407 l -0.512876,0.78465 -0.784957,1.23636 -0.185191,0.3079 q 0.383468,0.22477 0.500549,0.29068 0.592163,0.33335 0.904997,0.4887 l -0.432322,0.65209 q -0.589628,-0.33786 -1.125501,-0.63952 -0.725005,-0.40814 -1.27242,-0.71037 z"
           id="path2548" /><path
           d="m 90.856734,139.9846 q 0.305096,-0.5319 0.48641,-0.87271 0.333162,-0.62119 0.636148,-1.24439 0.306393,-0.62451 0.484631,-1.0288 0.319454,0.14648 0.567701,0.25593 0.167862,0.074 0.484392,0.2079 l -0.434065,0.83085 -0.660885,1.3069 -0.15434,0.32446 q 0.403524,0.18637 0.526466,0.24057 0.621798,0.27413 0.948269,0.3983 l -0.366797,0.69107 q -0.619714,-0.27886 -1.182406,-0.52693 -0.76129,-0.33563 -1.335524,-0.58315 z"
           id="path2550" /><path
           d="m 93.723727,141.23032 q 0.266107,-0.61462 0.431162,-1.03377 0.167515,-0.41837 0.422989,-1.11786 0.258726,-0.70115 0.333281,-0.93231 l 0.06734,-0.21719 q 0.578757,0.1921 1.402548,0.4578 0.759856,0.24508 1.341785,0.42734 l -0.03109,0.0796 q -0.01198,0.0287 -0.0813,0.20997 l -0.101206,0.26328 q -0.03268,0.0845 -0.06123,0.17301 -0.468258,-0.17275 -0.790397,-0.27665 -0.354108,-0.11421 -0.480314,-0.1522 -0.122954,-0.0397 -0.389248,-0.11469 l -0.211138,0.55361 q 0.287792,0.10097 0.673868,0.22549 0.137708,0.0444 0.738358,0.21914 -0.126113,0.30684 -0.28863,0.73495 -0.423834,-0.14213 -0.652529,-0.21589 -0.339353,-0.10945 -0.765408,-0.22786 l -0.222241,0.58803 0.282794,0.0912 q 0.125413,0.0404 0.521245,0.15998 l 0.512996,0.15188 q 0.11391,0.034 0.385043,0.10247 -0.146893,0.35443 -0.291882,0.73662 -0.598429,-0.19844 -1.314021,-0.42925 l -1.082789,-0.34652 z"
           id="path2552" /><path
           d="m 97.788066,142.4252 q 0.06777,-0.19969 0.204912,-0.68318 0.137142,-0.48349 0.179088,-0.6859 l -0.730913,-2.30467 q 0.380991,0.0842 0.628937,0.13562 0.237826,0.0493 0.570313,0.11291 0.04877,0.27398 0.147931,0.66131 0.102216,0.38533 0.153857,0.68365 0.397397,-0.4533 0.633751,-0.70249 0.236878,-0.25173 0.342142,-0.37768 0.320266,0.0717 0.616286,0.133 0.15686,0.0325 0.57031,0.11291 l -1.449937,1.40677 q -0.433159,0.42214 -0.437878,0.44491 l -0.0078,0.0248 -0.0052,0.0253 -0.0078,0.0248 -0.09741,0.3809 q -0.09688,0.37837 -0.202433,0.83674 -0.35569,-0.079 -0.550505,-0.11936 -0.199875,-0.0414 -0.557662,-0.1103 z"
           id="path2554" /><path
           d="m 100.41596,142.94864 q 0.1068,-0.56095 0.15503,-0.88343 0.067,-0.4401 0.16209,-1.20974 0.0977,-0.7694 0.12719,-1.08584 0.0105,-0.1132 0.0272,-0.31925 0.34144,0.0396 0.54211,0.0583 0.28042,0.0261 0.65442,0.0506 0.37423,0.0219 0.64179,0.0469 0.32158,0.03 0.45626,0.0607 0.17792,0.04 0.30619,0.11159 0.13083,0.0719 0.21272,0.16775 0.0907,0.11226 0.13391,0.26161 0.049,0.17065 0.0315,0.35845 -0.0137,0.14664 -0.0647,0.27682 -0.0485,0.13042 -0.12779,0.22943 -0.0765,0.0967 -0.16786,0.15821 -0.0914,0.0615 -0.17729,0.0925 -0.0833,0.0312 -0.2233,0.057 0.13419,0.0359 0.21364,0.0744 0.0797,0.036 0.16606,0.1115 0.0892,0.0732 0.15421,0.18305 0.065,0.10987 0.089,0.24186 0.0268,0.12966 0.0136,0.27115 -0.0182,0.19552 -0.0986,0.3619 -0.0804,0.16637 -0.20767,0.27906 -0.10759,0.0964 -0.27148,0.15634 -0.16389,0.06 -0.33118,0.0729 -0.13569,0.008 -0.49168,-0.0147 -0.35342,-0.0226 -0.74961,-0.0595 l -0.67637,-0.0656 z m 1.34721,-2.03606 0.36532,0.0341 q 0.18009,0.0168 0.25542,0.016 0.0781,-0.003 0.15233,-0.0195 0.0742,-0.0164 0.13068,-0.0657 0.0591,-0.049 0.0859,-0.11396 0.0294,-0.0647 0.0356,-0.13162 0.009,-0.0952 -0.0305,-0.17411 -0.0368,-0.0787 -0.13375,-0.12406 -0.097,-0.0454 -0.30279,-0.0646 l -0.46308,-0.0432 z m -0.19325,1.4326 0.49395,0.0461 q 0.19553,0.0182 0.2903,0.004 0.11584,-0.0178 0.17933,-0.0585 0.0635,-0.0408 0.10437,-0.11743 0.0434,-0.0764 0.0526,-0.17415 0.008,-0.0849 -0.0144,-0.15185 -0.0223,-0.067 -0.0748,-0.11597 -0.0525,-0.049 -0.13317,-0.0747 -0.0804,-0.0283 -0.25534,-0.0446 l -0.54284,-0.0506 z"
           id="path2556" /><path
           d="m 103.68727,143.29624 0.20239,-0.37878 1.25423,-2.55829 0.13298,-0.28606 q 0.058,-0.12595 0.16156,-0.36195 0.45468,-0.009 0.66387,-0.0162 0.36413,-0.0117 0.67386,-0.0268 l 0.41168,1.06477 0.83363,2.04648 0.16191,0.37222 q -0.44693,0.009 -0.54249,0.0123 -0.21692,0.007 -0.6377,0.0257 -0.12734,-0.42246 -0.36021,-0.99146 l -1.30158,0.0419 q -0.21005,0.46175 -0.43261,1.01696 -0.48051,0.0103 -0.58897,0.0138 -0.19627,0.006 -0.63255,0.0255 z m 1.94244,-1.81781 0.80315,-0.0258 q -0.32889,-0.90198 -0.36029,-0.99404 -0.15823,0.38511 -0.26922,0.63169 z"
           id="path2558" /><path
           d="m 108.4274,143.08225 q -0.0256,-0.61266 -0.0541,-0.99765 -0.0495,-0.70315 -0.12563,-1.3919 -0.0739,-0.69169 -0.13881,-1.12874 0.34835,-0.0465 0.61672,-0.0863 0.18146,-0.0269 0.52062,-0.0825 l 0.076,0.93431 0.13804,1.45797 0.0425,0.35678 q 0.44074,-0.0576 0.57364,-0.0773 0.67218,-0.0998 1.01457,-0.16888 l 0.0583,0.7802 q -0.67294,0.0947 -1.28123,0.18496 -0.82297,0.12215 -1.44072,0.21907 z"
           id="path2560" /><path
           d="m 111.49248,142.60461 q -0.0847,-0.60731 -0.15024,-0.98775 -0.11726,-0.69507 -0.2596,-1.37324 -0.14046,-0.6813 -0.24728,-1.11003 0.34222,-0.0799 0.60548,-0.14553 0.17801,-0.0444 0.51021,-0.13245 l 0.16596,0.92259 0.27835,1.4378 0.0768,0.35099 q 0.4331,-0.0999 0.56348,-0.1324 0.65938,-0.16429 0.99348,-0.26617 l 0.13349,0.77091 q -0.66063,0.15927 -1.25734,0.30794 -0.80731,0.20115 -1.4128,0.35734 z"
           id="path2562" /><path
           d="m 118.2787,139.45778 q 0.0293,0.15278 0.0928,0.4228 0.0625,0.26763 0.10517,0.41213 -0.48095,0.28431 -0.88244,0.44936 -0.38714,0.15915 -0.761,0.20109 -0.37246,0.0386 -0.74245,-0.0663 -0.36857,-0.10829 -0.61086,-0.35789 -0.24229,-0.2496 -0.39457,-0.62002 -0.17781,-0.43255 -0.15916,-0.84249 0.02,-0.41333 0.22685,-0.76653 0.20821,-0.35657 0.52879,-0.60289 0.31959,-0.24872 0.70435,-0.40689 0.35368,-0.14539 0.91198,-0.26875 l 0.0873,0.19878 q 0.0588,0.12947 0.13321,0.28327 l 0.12872,0.26556 q -0.30711,0.048 -0.49139,0.0958 -0.18189,0.0468 -0.33005,0.10775 -0.32262,0.13262 -0.52767,0.36777 -0.20504,0.23515 -0.25202,0.5422 -0.047,0.30706 0.0758,0.60578 0.11199,0.27244 0.31682,0.41731 0.20384,0.14249 0.45835,0.16358 0.25592,0.0177 0.56659,-0.11 0.16967,-0.0697 0.35722,-0.17758 0.18895,-0.1112 0.45764,-0.31384 z"
           id="path2564" /><path
           d="m 119.02567,140.04194 q -0.23261,-0.56736 -0.39035,-0.9197 -0.28586,-0.64433 -0.59182,-1.26607 -0.30492,-0.62524 -0.51466,-1.01412 0.31174,-0.16226 0.55053,-0.29104 0.16146,-0.0871 0.46147,-0.25476 l 0.38942,0.85268 0.62599,1.32397 0.16139,0.32101 q 0.39484,-0.20414 0.51309,-0.26792 0.59811,-0.32258 0.89653,-0.50408 l 0.32038,0.71378 q -0.60056,0.31803 -1.1418,0.60994 -0.73228,0.39494 -1.28017,0.69631 z"
           id="path2566" /><path
           d="m 119.89377,135.57093 q 0.33386,-0.2259 0.46962,-0.32032 0.1697,-0.11802 0.44887,-0.31848 l 0.56337,0.94578 q 0.15794,0.26783 0.30224,0.49794 0.14642,0.22863 0.20543,0.31348 0.11213,0.16121 0.2107,0.25317 0.0986,0.0919 0.2132,0.12553 0.11315,0.0315 0.24789,-0.006 0.13686,-0.0385 0.25565,-0.12115 0.10182,-0.0708 0.17468,-0.15611 0.0567,-0.0678 0.0883,-0.14008 0.0267,-0.0658 0.0332,-0.13325 0.009,-0.0819 -0.01,-0.18186 -0.0162,-0.0957 -0.0789,-0.22208 -0.062,-0.12994 -0.31792,-0.56572 -0.21732,-0.3713 -0.40606,-0.67436 -0.18496,-0.2931 -0.42958,-0.66745 0.32326,-0.21852 0.5078,-0.34687 l 0.42766,-0.30373 0.94352,1.57837 q 0.0274,0.0439 0.0466,0.0715 0.29837,0.44712 0.37858,0.66201 0.0808,0.21128 0.0677,0.41868 -0.0131,0.20741 -0.14152,0.45722 -0.12988,0.24769 -0.35769,0.47222 -0.22781,0.22453 -0.49296,0.40894 -0.23758,0.16524 -0.48179,0.28473 -0.22725,0.10769 -0.43484,0.15765 -0.20907,0.0478 -0.39047,0.045 -0.16636,-0.004 -0.28329,-0.0453 -0.11841,-0.0436 -0.23349,-0.13661 -0.12965,-0.10496 -0.2344,-0.25557 -0.0354,-0.0509 -0.10198,-0.15568 -0.068,-0.10689 -0.18745,-0.31025 l -0.20847,-0.35858 q -0.0823,-0.14101 -0.24959,-0.40865 z"
           id="path2568" /><path
           d="m 125.142,136.16223 q -0.33843,-0.45993 -0.54194,-0.71468 -0.27696,-0.34853 -0.77627,-0.94189 -0.4974,-0.59508 -0.70922,-0.832 -0.0758,-0.0848 -0.21548,-0.23713 0.26135,-0.22327 0.41159,-0.3576 0.20996,-0.18772 0.48237,-0.44514 0.27069,-0.25935 0.47101,-0.43845 0.24078,-0.21528 0.35492,-0.29307 0.15033,-0.10321 0.29011,-0.14847 0.1417,-0.047 0.26767,-0.0418 0.14401,0.01 0.28282,0.0799 0.15838,0.0802 0.2841,0.22083 0.0982,0.1098 0.15882,0.23579 0.0626,0.12427 0.0812,0.24975 0.0188,0.12182 0.002,0.23066 -0.0171,0.10884 -0.0529,0.19284 -0.0339,0.0823 -0.11014,0.20245 0.11759,-0.0739 0.1999,-0.10593 0.0806,-0.0339 0.1947,-0.0458 0.11432,-0.0156 0.23907,0.0115 0.12475,0.0271 0.23782,0.0993 0.11328,0.0685 0.208,0.17449 0.13089,0.14639 0.19812,0.3185 0.0672,0.17211 0.0632,0.34207 -0.003,0.14442 -0.0701,0.30533 -0.0676,0.16091 -0.17188,0.29232 -0.0864,0.10496 -0.34531,0.35033 -0.25701,0.24364 -0.55364,0.50886 l -0.50831,0.451 z m -0.57549,-2.37261 0.27352,-0.24455 q 0.13483,-0.12055 0.18552,-0.17628 0.0509,-0.0594 0.0893,-0.12492 0.0384,-0.0656 0.0408,-0.14045 0.004,-0.0766 -0.0251,-0.14048 -0.0274,-0.0656 -0.0722,-0.11566 -0.0637,-0.0713 -0.14834,-0.0961 -0.0827,-0.0266 -0.18192,0.0136 -0.0992,0.0402 -0.25333,0.17797 l -0.34671,0.30999 z m 0.91839,1.11635 0.36983,-0.33066 q 0.14639,-0.13088 0.20024,-0.21022 0.0658,-0.097 0.0791,-0.17124 0.0133,-0.0743 -0.015,-0.15638 -0.0264,-0.0838 -0.0919,-0.15702 -0.0568,-0.0636 -0.12107,-0.0928 -0.0643,-0.0292 -0.1359,-0.0241 -0.0717,0.005 -0.14535,0.0468 -0.0754,0.0397 -0.20639,0.15681 l -0.40643,0.36338 z"
           id="path2570" /></g><ellipse
         style="fill:none;fill-rule:evenodd;stroke:#ff0000;stroke-width:0.364863;stroke-dasharray:none;stroke-opacity:1"
         id="path9047"
         cx="75.298096"
         cy="82.91787"
         rx="10.85649"
         ry="10.680235" /></g></g></svg>
